<?xml version="1.0" encoding="UTF-8"?>
<svg id="Layer_1" xmlns="http://www.w3.org/2000/svg" version="1.1" viewBox="0 0 305.83 74.51">
  <!-- Generator: Adobe Illustrator 30.2.1, SVG Export Plug-In . SVG Version: 2.1.1 Build 1)  -->
  <defs>
    <style>
      .st0 {
        fill: #fff;
      }
    </style>
  </defs>
  <path class="st0" d="M47.75,63.05c4.14-3.35-.42-12.79,10.81-21.24.29,5.44-.43,10.82,2.39,15.17,2.6,4.01,8.25,4.49,12.88,3.14,4.22,5.9,10.75,7,17.18,3.89,3.03-1.47,15.19-9.26,12.96-14.54l-17.31,8.58c-2.08,1.03-4.78,1.46-6.96.83,3.29-3.61,4.9-6.15,6.63-10.08.77-1.75,2.56-4.34-.1-5.8-2.09-1.15-6.95-1.86-9.15-.39-3.09,2.06-3.28,6.7-4.5,10.01-.63,1.69-5.41,3.06-6.6,1.65-4.57-5.11,1.65-17.32-6.03-16.85l-5.6.34c.92-5,3.54-28.47-.61-29.7-.75-.22-2.61-.26-3.28.23-2.45,1.79-2.62,6.09-3.65,8.96-4.56,12.68-5.15,19.6-10.53,31.67-5.47,1.03-8.97,2.95-14.24,5.33l1.52-14.59,11.95-5.12c.75-.32,1.79-1.9,1.58-2.67s-2.1-2.4-3.02-2.16l-8.2,2.13c.35-9.55,4.02-8.78,1.85-16.86-.3-1.11-2.22-2.46-3.2-2.21-1.24.32-2.34,1.7-2.67,3.05l-4.51,18.79-10.99,2.8c.65,1.68,1.51,3.35,2.6,3.79,1.31.52,4.01.46,5.18.29l1.66-.25c2.47-.37-5.44,16.86,3.27,23.9,10.43-2.71,10.61-3.4,18.87-8.85,4.32-2.85,4.65-8.89,7.72-12.84-.41,2.2-.94,4.6-1.59,6.89-2.95,10.42,2.1,14,3.69,12.71ZM262.75,54.69l-9.84,8.81c-5.49-4.07-1.17-11.15-2.76-11.66l-2.42-.77c-4.93-5.94-13.55-4.7-18.58-.58-4.53,3.7-9.43,6.57-14.52,9.32,2.47-2.94,5.33-6.42,3.28-10.11-1.52-2.73-6.5-3.78-8.91-2.26-7.2,4.56-1.25,14.17-17.98,12.83l.81-8.89c.14-1.48,1.82-4.56.7-5.28-3.59-2.3-6.27-.4-9.74,2.08l-2.69-4.85-6.19-.41c-.65,10.84.79,8.64-4.1,18.84l-2.08-11.77c-.35-1.98-2.66-3.29-5.01-3.3-4.04,0-7.14,2.34-11,4.2,3.21-9.73,6.13-17.7,5.41-27.38-2.63-.24-5.41-.18-8.18.07-1.96,4.05-2.78,8.04-3.03,12.6l-.53,9.74c-.16,2.93-3.74,5.67-5.4,7.99-2.89,4.05-6.21,2.63-13.51,6.34l.5-13.4c3.85-3.41,11.37-3.89,11.18-8.92-3.62-.86-6.86-.6-10.72.04l-.87-11.55c-.11-1.4-1.15-3.55-1.9-5.05-.94-1.89-3.71-3.1-5.21-1.93.62,6.95.71,13.75-.35,20.69l-6.61,3.31c-1.34.67-.63,4.25.16,5.58.68,1.15,2.77,1.56,5.42,1.89l.05,11.7c0,2.39.53,7.01,3.75,7.22,5.3.34,10.31-2.41,15.01-4.49,2.6-1.15,3.78-2.45,4.75-5.35l4.85-3.61.94,10.19c.13,1.42,1.56,3.59,2.72,3.61,5.21.08,2.45-2.25,5.76-9.91,1.52-3.52,3.65-6.12,7.5-7.23l.39,7.99c.19,3.86,1.17,6.14,4.78,7.45,2.3.84,5.65.92,7.65-1.92,2.76-3.93,3.46-9.13,4.46-13.95l6.4,1.38c-.54,2.63-.94,5.97.66,8.36,1.18,1.78,4.69,3.07,7.28,2.87l8.8-.7c1.44,2.85,2.83,6.34,6.59,6.4,4.16.06,13.58-9.77,18.84-12.33.62,5.59,2.85,10.38,8.24,9.9,3.37-.31,5.59-3.68,8-6.26l2.7,4.36c1.13,1.83,4.18,3.56,6.26,3.53,2.51-.03,4.71-1.78,6.6-3.48l7.98-7.19c.24,3.96.45,7.15,2.73,9.44s5.57,3.23,8.93,3.01c4.78-.31,6.83-3.52,7.94-7.94l1.66-6.62c.93-3.69,1.2-7.55,1.39-11.37.32-6.66-6.23-15-6.62-23.32-2.66,2.58-4.76,6.56-4.11,10.27l2.75,15.76c-7.55-1.57-15.66,1.27-20.99,6.03l.03-.02Z"/>
  <path d="M262.75,54.69c5.32-4.77,13.43-7.6,20.99-6.03l-2.75-15.76c-.65-3.71,1.45-7.69,4.11-10.27.4,8.32,6.94,16.66,6.62,23.32-.18,3.82-.46,7.67-1.39,11.37l-1.66,6.62c-1.11,4.42-3.16,7.63-7.94,7.94-3.36.21-6.68-.75-8.93-3.01s-2.49-5.48-2.73-9.44l-7.98,7.19c-1.89,1.7-4.09,3.45-6.6,3.48-2.08.02-5.13-1.71-6.26-3.53l-2.7-4.36c-2.41,2.58-4.63,5.95-8,6.26-5.39.49-7.62-4.3-8.24-9.9-5.26,2.56-14.69,12.39-18.84,12.33-3.76-.06-5.16-3.55-6.59-6.4l-8.8.7c-2.59.21-6.1-1.09-7.28-2.87-1.59-2.39-1.2-5.73-.66-8.36l-6.4-1.38c-1,4.82-1.69,10.02-4.46,13.95-2,2.84-5.35,2.76-7.65,1.92-3.61-1.32-4.59-3.59-4.78-7.45l-.39-7.99c-3.85,1.11-5.98,3.72-7.5,7.23-3.31,7.66-.55,9.99-5.76,9.91-1.16-.02-2.59-2.19-2.72-3.61l-.94-10.19-4.85,3.61c-.98,2.89-2.16,4.19-4.75,5.35-4.7,2.08-9.71,4.84-15.01,4.49-3.22-.21-3.74-4.83-3.75-7.22l-.05-11.7c-2.66-.34-4.74-.75-5.42-1.89-.79-1.32-1.5-4.9-.16-5.58l6.61-3.31c1.06-6.94.98-13.74.35-20.69,1.49-1.17,4.27.04,5.21,1.93.75,1.5,1.79,3.65,1.9,5.05l.87,11.55c3.86-.64,7.1-.9,10.72-.04.19,5.04-7.33,5.51-11.18,8.92l-.5,13.4c7.3-3.71,10.61-2.3,13.51-6.34,1.66-2.32,5.24-5.06,5.4-7.99l.53-9.74c.25-4.56,1.07-8.55,3.03-12.6,2.76-.25,5.54-.31,8.18-.07.72,9.68-2.2,17.66-5.41,27.38,3.86-1.86,6.96-4.21,11-4.2,2.35,0,4.66,1.32,5.01,3.3l2.08,11.77c4.89-10.19,3.45-8,4.1-18.84l6.19.41,2.69,4.85c3.47-2.48,6.15-4.38,9.74-2.08,1.12.72-.57,3.8-.7,5.28l-.81,8.89c16.73,1.34,10.78-8.28,17.98-12.83,2.41-1.53,7.4-.48,8.91,2.26,2.05,3.7-.81,7.17-3.28,10.11,5.09-2.75,9.99-5.61,14.52-9.32,5.03-4.11,13.65-5.35,18.58.58l2.42.77c1.6.51-2.72,7.59,2.76,11.66l9.84-8.81-.03.02ZM242.38,53.93c-3.53.28-6.49,3.88-6.98,7.95,2.92-2.01,5.02-4.68,6.98-7.95ZM281.4,61.28l1.15-6.97c-4.51.42-6.3,3.77-7.71,7.93-.55,1.62,1.62,2.95,3.49,2.95,1.51,0,2.76-2.02,3.07-3.91ZM213.27,61.26c1.1-.89.19-.74-1.01-.4-1.32.4-3.82,1.68-3.13,2.74,1.11,1.07,3.05-.76,4.14-2.34Z"/>
  <path d="M47.75,63.05c-1.59,1.29-6.64-2.29-3.69-12.71.65-2.29,1.18-4.69,1.59-6.89-3.07,3.96-3.4,10-7.72,12.84-8.27,5.45-8.44,6.14-18.87,8.85-8.71-7.03-.8-24.27-3.27-23.9l-1.66.25c-1.17.17-3.87.23-5.18-.29-1.09-.43-1.94-2.11-2.6-3.79l10.99-2.8,4.51-18.79c.33-1.35,1.43-2.73,2.67-3.05.98-.25,2.9,1.09,3.2,2.21,2.17,8.08-1.5,7.32-1.85,16.86l8.2-2.13c.92-.24,2.8,1.39,3.02,2.16s-.83,2.35-1.58,2.67l-11.95,5.12-1.52,14.59c5.27-2.38,8.77-4.29,14.24-5.33,5.38-12.07,5.97-18.99,10.53-31.67,1.03-2.87,1.2-7.17,3.65-8.96.67-.49,2.53-.45,3.28-.23,4.15,1.23,1.54,24.7.61,29.7l5.6-.34c7.68-.47,1.46,11.75,6.03,16.85,1.19,1.41,5.98.04,6.6-1.65,1.22-3.31,1.41-7.95,4.5-10.01,2.2-1.47,7.06-.76,9.15.39,2.65,1.46.87,4.05.1,5.8-1.73,3.93-3.35,6.46-6.63,10.08,2.18.63,4.88.2,6.96-.83l17.31-8.58c2.23,5.28-9.92,13.07-12.96,14.54-6.43,3.11-12.96,2.01-17.18-3.89-4.63,1.35-10.28.88-12.88-3.14-2.83-4.36-2.11-9.74-2.39-15.17-11.23,8.45-6.67,17.89-10.81,21.24Z"/>
  <path class="st0" d="M281.4,61.28c-.31,1.88-1.56,3.9-3.07,3.91-1.87,0-4.04-1.33-3.49-2.95,1.41-4.16,3.2-7.51,7.71-7.93l-1.15,6.97Z"/>
  <path class="st0" d="M242.38,53.93c-1.95,3.27-4.06,5.94-6.98,7.95.49-4.07,3.44-7.67,6.98-7.95Z"/>
  <path class="st0" d="M213.27,61.26c-1.1,1.59-3.03,3.41-4.14,2.34-.69-1.07,1.81-2.34,3.13-2.74,1.2-.34,2.11-.48,1.01.4Z"/>
</svg>